# xmcd
#
# Track frame offsets: 
#        150
#        14576
#        30263
#        41733
#        57896
#        71526
#        80860
#        93695
#        106944
#        122966
#        134073
#        144283
#        156997
#        174933
#        187441
#        204233
#
# Disc length: 2858 seconds
#
# Revision: 0
# Processed by: cddbd v1.4PL0 Copyright (c) Steve Scherf et al.
# Submitted via: ExactAudioCopy v0.95a3
#
DISCID=ea0b2810
DTITLE=Wanda Jackson - Heart Trouble
DYEAR=2003
DGENRE=Rock and Roll
TTITLE0=Heart Trouble
TTITLE1=Cash on the Barrelhead
TTITLE2=Funnel of Love
TTITLE3=Woman Walk Out the Door
TTITLE4=Crying Time
TTITLE5=Mean Mean Man
TTITLE6=It Happens Every Time
TTITLE7=Riot in Cellblock #9
TTITLE8=Anytime You Wanna Fool Around
TTITLE9=Hard Headed Woman
TTITLE10=Lonely for You
TTITLE11=What Gives You the Right (To Do Me Wrong)
TTITLE12=Rockabilly Fever
TTITLE13=It'll Be Me
TTITLE14=Walk With Me
TTITLE15=Let's Have a Party
EXTD=
EXTT0=
EXTT1=
EXTT2=
EXTT3=
EXTT4=
EXTT5=
EXTT6=
EXTT7=
EXTT8=
EXTT9=
EXTT10=
EXTT11=
EXTT12=
EXTT13=
EXTT14=
EXTT15=
PLAYORDER=
